<svg xmlns="http://www.w3.org/2000/svg" xmlns:xlink="http://www.w3.org/1999/xlink" xml:space="preserve" width="210mm" height="297mm" style="shape-rendering:geometricPrecision; text-rendering:geometricPrecision; image-rendering:optimizeQuality; fill-rule:evenodd; clip-rule:evenodd" viewBox="0 0 210 297">
 <defs>
  <style type="text/css">
   <![CDATA[
    .str0 {stroke:#1F1A17;stroke-width:0.0762}
    .fil0 {fill:#1F1A17}
   ]]>
  </style>
 </defs>
 <g id="Warstwa_x0020_1">
  <metadata id="CorelCorpID_0Corel-Layer"/>
  <g id="_141515120">
   <path id="_141528088" class="fil0 str0" d="M63.5802 62.0041l-11.3254 6.8424c0.59,36.8072 26.4255,64.5314 36.0997,99.805l9.2018 0 35.4706 -102.34c9.8652,1.9109 35.4359,-3.8564 29.8504,-17.0714 -0.0101,-0.0238 -0.0275,-0.0434 -0.0338,-0.0697 -0.0035,-0.0144 -0.4953,0.1658 -0.4953,0.1658 0,0 -1.6426,0.5862 -1.6426,0.5862 0.2282,0.3609 0.4766,0.9125 0.4934,1.3468 0.1492,3.8431 -3.1806,8.5755 -8.6785,10.6678 -6.8949,2.624 -16.7604,2.7972 -17.7494,1.611 -0.0008,-3.3608 10.1775,-16.9459 22.895,-14.7954 0.9153,0.1548 1.7795,0.421 2.5011,0.7926 0.1929,0.0994 0.3927,0.2171 0.5384,0.3772 0.0294,0.0324 2.1454,-0.743 2.1379,-0.752 -0.0309,-0.0374 -0.0527,-0.0853 -0.084,-0.1222 -5.8953,-6.9292 -20.7637,-5.6199 -31.6989,13.8997 -11.7186,31.774 -23.4373,63.548 -35.1559,95.322 -10.0671,-32.5604 -32.639,-55.2113 -32.3245,-96.2658z"/>
   <path id="_141527520" class="fil0 str0" d="M131.061 62.9479c-26.9622,-3.5479 -48.0268,-27.653 -77.348,-17.7208 -17.5021,5.2962 -29.5282,39.4061 1.5825,44.7023 -0.3932,-1.6434 -0.6787,-2.7847 -1.072,-4.4281 -25.3813,-4.7479 -12.3768,-32.1323 -0.7725,-34.3527 18.9154,-6.8897 60.0658,13.4656 76.4033,15.0712l1.2067 -3.2719z"/>
   <path id="_141526664" class="fil0 str0" d="M65.9338 85.0224c4.7919,-1.252 6.4316,-1.8593 8.2263,-2.4737 1.1424,-0.4906 4.4907,-1.7678 4.4907,-1.7678 -6.4012,-4.339 -4.5516,-18.8905 4.5495,-17.3557 3.0122,0.388 4.8354,4.7801 3.3007,9.331 -1.241,2.5369 -4.1886,6.9823 -7.8502,8.0247l0 0 2.4742 2.9793 7.4674 6.2882c-1.348,0.674 -2.696,1.3481 -4.0441,2.0221 -5.1221,-3.8518 -11.8861,-10.2714 -12.5879,-14.5862 -2.5427,-17.5742 9.3179,-18.0913 11.4823,-17.8294 9.4522,1.9506 8.6378,16.7273 -2.0413,23.69 -2.0601,1.1201 -9.4255,4.2774 -14.4258,6.0355l-1.0418 -4.358z"/>
   <path id="_141526280" class="fil0 str0" d="M80.9681 83.5713l-2.3173 -2.7904 -4.1839 1.6389c0.811,1.0246 1.6345,1.9839 2.5393,2.9697l3.9619 -1.8182z"/>
   <path id="_141525896" class="fil0 str0" d="M81.0385 89.2288c-4.0294,2.6545 -7.8288,5.4675 -11.4898,8.642 0.4663,1.2902 0.9327,2.5804 1.399,3.8706 4.4083,-4.842 7.9932,-7.3871 13.0299,-10.1055 -1.0186,-0.8363 -1.9205,-1.5709 -2.9391,-2.4071z"/>
   <path id="_141525256" class="fil0 str0" d="M88.5924 90.0484c9.3286,6.0943 17.1269,11.1129 25.8487,17.9617 -0.9653,2.6173 -1.9306,5.2346 -2.8959,7.852 -10.0399,-10.4462 -16.1763,-15.5141 -26.9969,-23.7916l4.0441 -2.0221z"/>
   <path id="_141524872" class="fil0 str0" d="M88.2848 89.7894c7.8455,-3.7481 16.8092,-7.9535 33.4727,-1.617 0.4086,-1.108 0.8173,-2.2161 1.2259,-3.3241 -16.0913,-6.6012 -30.611,-0.6504 -37.6808,2.4638l2.9822 2.4773z"/>
   <path id="_141523928" class="fil0 str0" d="M107.783 126.062c-0.0424,-0.0048 0.0436,0.011 0,0 -2.0121,-0.5083 -5.4146,-7.6364 -1.6791,-11.5063 0.1963,-0.3291 0.5208,-1.0906 -1.0409,-1.0409l0 0c-2.7163,-0.0192 -7.0807,9.2001 1.61,15.5567l1.11 -3.0095z"/>
   <path id="_141523264" class="fil0 str0" d="M111.728 127.763c2.344,1.0413 4.753,1.1075 8.2671,-0.5814 0.599,1.0003 0.9887,1.8249 1.3258,2.8755 -4.777,1.5566 -6.8211,1.5313 -10.5797,0.5528 0.3409,-0.9835 0.6459,-1.8635 0.9868,-2.8469z"/>
   <path id="_141522600" class="fil0 str0" d="M114.652 119.328c2.1302,2.4474 3.6926,3.8477 5.3437,7.8535 2.4249,-1.1147 4.8499,-2.2294 7.2749,-3.3441 -2.9293,-5.8728 -4.9043,-8.0589 -9.6986,-12.9342 -0.9733,2.8083 -1.9467,5.6165 -2.92,8.4248z"/>
   <path id="_141521936" class="fil0 str0" d="M98.7742 195.533c-0.7228,0.6939 -1.4457,1.3879 -2.1686,2.0819 -60.7055,-35.407 -46.1162,-74.4573 -35.3437,-90.6069 0.8685,1.9699 1.7369,3.9399 2.6053,5.9097 -15.2553,30.4878 14.2851,72.0717 34.907,82.6153z"/>
   <circle id="_141521552" class="fil0 str0" cx="151.385" cy="181.567" r="4.55212"/>
   <path id="_141521032" class="fil0 str0" d="M152.857 166.521c-0.0888,1.1786 -2.278,1.2 -2.3566,-0.1076 -1.7554,-29.1971 -3.1314,-62.7991 -4.7154,-91.9718 0.2531,-5.9587 8.1398,-6.0187 8.5664,-0.0499l-1.4944 92.1293z"/>
   <path id="_141519840" class="fil0 str0" d="M124.929 89.6749c15.0065,12.1683 9.3677,29.5413 2.3409,34.1627 0.6795,1.2 1.1495,2.03 1.829,3.23 7.7953,-6.4371 17.6218,-24.9955 -3.0787,-40.5409 -0.3637,1.0495 -0.7275,2.0989 -1.0912,3.1482z"/>
   <path id="_141519456" class="fil0 str0" d="M98.7742 195.533c21.1264,-19.4873 31.3229,-49.037 21.221,-68.3509l7.2749 -3.3441c17.7972,31.7922 -7.0842,58.7266 -26.2405,72.9962l-2.2554 -1.3012z"/>
   <path id="_141518744" class="fil0 str0" d="M101.03 196.834c-12.3178,8.501 -20.6454,13.0118 -36.1728,13.5322 -21.9395,-1.5994 -19.6091,-8.5777 -18.6234,-8.3715 1.4323,0.2997 5.3672,0.2041 10.6429,-0.1295 -0.5797,7.0168 29.2013,3.0477 33.2785,-0.8056 1.9651,-0.7743 6.4508,-3.4449 8.6194,-5.5268l0 0c0.7518,0.4337 1.5036,0.8674 2.2554,1.3012z"/>
   <path id="_141518096" class="fil0 str0" d="M90.1548 201.059c-13.435,-4.4157 -29.2988,-5.5351 -33.2785,0.8056 -3.7409,0.404 -7.2872,0.5267 -11.0281,0.3683 5.2396,-11.8678 37.0934,-9.3187 47.0172,-2.5363l-2.7106 1.3624z"/>
   <path id="_141517712" class="fil0 str0" d="M96.3832 204.582c-15.6557,21.4745 -4.9408,44.5105 3.5187,46.7276 -0.1656,-3.975 -0.3312,-7.9499 -0.4968,-11.9249 -0.0079,-0.1888 -0.0158,-0.3776 -0.0236,-0.5664l0.0236 0.5664c-10.1281,-3.3978 -5.4596,-28.1513 -1.3514,-33.0042l-1.6705 -1.7985z"/>
   <path id="_141517328" class="fil0 str0" d="M99.9019 251.31c11.4504,-3.1229 15.0937,-27.585 0,-46.8425 -0.616,0.6379 -1.2321,1.2756 -1.8482,1.9134 6.5226,9.9605 11.7762,28.0102 1.3514,33.0042l0.4968 11.9249z"/>
   <path id="_141516688" class="fil0 str0" d="M98.0537 206.381c0.6161,-0.6378 1.2321,-1.2755 1.8482,-1.9134 -1.8475,-1.3255 -3.0041,-2.3114 -4.9574,-3.5865l-2.1722 1.3384c1.5287,0.9394 2.142,1.1975 3.6109,2.363l1.6705 1.7985z"/>
   <path id="_141516304" class="fil0 str0" d="M99.8014 204.425l3.3068 -3.1932 -2.0151 -0.8884c-1.0518,0.8895 -2.1036,1.7789 -3.1554,2.6683 0.5446,0.5553 0.9989,1.062 1.8637,1.4133z"/>
   <path id="_141515992" class="fil0 str0" d="M98.322 198.678c14.7239,10.662 47.4041,12.2158 52.2392,0.4976 -4.3667,-0.0127 -8.7333,-0.0254 -13.0999,-0.0381 -3.3537,6.056 -24.2916,4.6585 -32.2862,0.2616 -0.5079,-0.0508 -1.2068,-0.4464 -1.9089,-0.8171 -0.9318,-0.4921 -1.931,-1.1828 -2.4395,-1.6084 0,0 -1.1027,0.2853 -2.5047,1.7044z"/>
   <path id="_141515560" class="fil0 str0" d="M150.561 199.176l-13.0999 -0.0381c-2.2694,-6.1028 -19.9345,-6.5239 -32.3531,0.2983 -0.8944,-0.3234 -1.2802,-0.2999 -1.8608,-0.8402l0.0376 -0.0272c13.3588,-12.26 45.3678,-9.3396 47.2762,0.6072l0 0z"/>
  </g>
 </g>
<script xmlns=""/></svg>